<?xml version="1.0" encoding="UTF-8"?>
<svg width="100" height="60" version="1.1" viewBox="0 0 26.45833 15.874999" xmlns="http://www.w3.org/2000/svg" xmlns:cc="http://creativecommons.org/ns#" xmlns:dc="http://purl.org/dc/elements/1.1/" xmlns:rdf="http://www.w3.org/1999/02/22-rdf-syntax-ns#">
<metadata>
<rdf:RDF>
<cc:Work rdf:about="">
<dc:format>image/svg+xml</dc:format>
<dc:type rdf:resource="http://purl.org/dc/dcmitype/StillImage"/>
<dc:title/>
</cc:Work>
</rdf:RDF>
</metadata>
<g transform="translate(-88.424 -117.86)">
<g transform="translate(-6.4256 17.009)">
<g transform="matrix(.35278 0 0 -.35278 112.96 109.87)">
<path d="m0 0c-1.689 0-3.05 1.37-3.05 3.061 0 1.689 1.361 3.059 3.05 3.059 1.69 0 3.061-1.37 3.061-3.059 0-1.691-1.371-3.061-3.061-3.061m0.33 10.42h-13.58c-4.05 0-7.359-3.31-7.359-7.359 0-4.051 3.309-7.361 7.359-7.361h13.58c4.05 0 7.36 3.31 7.36 7.361 0 4.049-3.31 7.359-7.36 7.359" fill="#fff"/>
</g>
<g transform="matrix(.35278 0 0 -.35278 103.09 103.79)">
<path d="m0 0c4.051 0 7.364-3.313 7.364-7.364v-13.577c0-4.051-3.313-7.364-7.364-7.364-4.05 0-7.363 3.313-7.363 7.364v13.577c0 4.051 3.313 7.364 7.363 7.364" fill="#fff"/>
</g>
</g>
</g>
</svg>
